<svg xmlns="http://www.w3.org/2000/svg" viewBox="0 0 2604.046 1337.327" xmlns:v="https://vecta.io/nano"><path d="M61.497 30.637H70.1c3.873 4.359 8.7 9.488 15.064 9.011 3.785-1.781 5.654-5.839 8.096-9.011h7.658c-.386 5.721 1.236 8.066-8.378 18.518-8.498 3.518-27.633 4.214-31.043-18.518zm69.421 0h6.598l-5.8 265.54c5.915 27.132 5.075 27.011-.282 34.526 4.856 23.755-4.131 63.268 1.44 89-.847 4.068-1.859 8.125-2.053 12.3 21.896-.347 25.585 9.298 31.597 21.369 6.643 20.214 5.906 5.975 11.152 38.875 3.873-1.362 7.999-.963 12.018-.866.156-5.362-.282-10.724-.097-16.095-.055-5.312 8.364-17.195 17.088-18.946 2.627.204 5.177 1.061 7.678 1.868 0 0-1.756 12.887 7.97 46.281.895 2.803.243 5.741.516 8.602.461 1 25.836 32.532 4.846 63.252 19.651 19.892 11.595 18.722 14.246 29.047l3.815-2.511c265.651 204.202 737.265 522.374 783.716 530.788l.165 5.002c32.273-3.415 15.854-17.616 68.574 24.425 66.028 52.849 269.314 120.522 470.689 117.385 6.841-.088 13.458-2.16 20.309-2.16 6.763-1.547 13.672-.263 20.532-.457 8.949.494 36.814-5.401 37.815-5.537 10.967-2.083 22.138-2.715 33.251-3.62 8.164-3.445 17.302-4.175 26.079-3.474 65.858-13.385 169.679-47.636 176.014-49.064a75.44 75.44 0 0 1-.058-2.949c17.922 4.382 147.583-62.866 158.275-65.091 0 0 179.946-114.739 254.515-193.773-.75-1.703-1.927-3.26-2.16-5.099 2.145-15.51 5.004-16.346 8.125-24.96-20.36 14.849-26.522 12.323-28.346 25.398 1.226 1.606 2.696 2.987 4.067 4.515-7.162 6.574-18.91 11.845-22.342 1.187-2.911 1.553-105.208 65.125-160.824 87.949.16-.127 108.686-61.115 129.598-75.289l-4.243-9.76c4.953-2.073 9.935.798 14.869 1.489l-3.61-2.355c.866-4.34 1.83-8.69 3.698-12.718-55.19 35.425-177.892 97.068-189.579 101.64 4.961-7.958 68.033-37.718 76.729-43.507-11.073 4.319-150.995 77.629-163.559 79.716 0 0 120.042-66.429 220.758-115.157l-1.557-6.14c2.861-.127 5.751.029 8.593.574 21.076-16.94 164.282-332.548 171.879-427.629-1.897 1.343-4.126 2.335-5.556 4.204-2.073 5.264-4.048 10.587-5.118 16.163-4.959 27.044-110.89 268.333-122.621 273.879-.146 2.063-.165 4.126-.116 6.199l-3.28.302c.068 1.674.175 3.357.312 5.05l-4.963 4.35c.166 1.129.409 2.287.652 3.435-3.581 2.968-5.819 7.143-7.581 11.356-1.187 2.306-.088 4.865.165 7.269l-3.659-1.898c-5.618 14.407-30.426 48.194-32.9 58.191 3.737-.107 7.59-.671 11.268.428 4.155 1.333 8.31-1.197 12.504-.438.788 1.041 1.635 2.627.798 3.912-7.957 13.73-17.165-1.777-32.94 7.58-4.165 2.841-4 8.476-5.78 12.709-1.304 1.421-2.997 2.394-4.593 3.425l-.195 5.012-4.846 1.586 1.061 6.773c-1.859 1.693-3.718 3.386-5.449 5.196 8.042-2.694 32.257-15.767 41.094-15.287-.913 1-269.521 131.629-311.558 138.579l262.825-119.633c-4.155-.506-7.152-3.26-9.352-6.588-13.906 4.858-299.375 131.66-369.525 148.291 45.63-16.485 344.234-141.995 344.234-141.995 54.363-17.978 31.268-9.93 40.17-20.591 25.451-31.737 45.811-80.761 55.953-92.561l.049 3.493c.526-2.386 93.599-187.524 94.021-188.529 34.828-81.172 52.509-132.526 52.509-132.526-5.216 3.046-10.967 6.276-13.808 11.774.396 7.485-10.446 27.411-15.988 39.089-1.654 2.832.662 6.403-1.489 9.069-4.227 6.669-38.624 71.991-39.08 72.992-60.102 111.827-155.19 248.88-155.19 248.88 15.937 6.145 23.723-.162 30.711 5.284-1.469 1.888-2.559 4.544-5.118 5.109-5.337 1.654-22.674-2.402-28.346-4.175-3.493 2.394-4.155 6.997-7.055 9.926-20.474 20.474-14.642 21.982-12.514 26.799-6.311 3.617-395.95 147.653-423.97 145.907l402.299-141.674c-.35-3.065-3.143-6.413-1.353-9.293 2.871-.438 5.693.496 8.437 1.275 0 0 142.98-191.632 237.972-399.39-2.166 1.466-15.909 14.197-17.701 22.829-13.965 56.82-229.468 337.911-230.051 338.911 15.192 3.271 13.009-.776 22.196.759 2.637 1.995 1.615 6.997-1.81 7.279-29.775 2.596-21.834-10.511-38.243 11.337-3.6 4.418-5.984 10.033-11.385 12.641 3.953 8.539 9.286 9.241-40.997 27.48-21.307 7.318-326.603 123.748-358.043 115.741 6.315-2.987 13.361-3.523 20.017-5.391 123.356-30.331 348.248-119.544 363.793-123.759.36-.915.457-1.849.273-2.793-9.027-3.442-8.547-4.628-9.361-10.811 4.252-.253 8.466.516 12.641 1.304 0 0 179.646-209.542 267.32-377.962 0 0-135.894 193.591-260.489 322.875-5.314 6.385-2.994.122-14.587 17.594 20.835 3.708 13.573 1.457 22.771 1.041.088 3.036.058 6.072-.01 9.118-7.546.194-29.31-5.868-29.31-5.868-3.659 1.81-5.313 5.712-7.649 8.807-.704 1-25.432 18.368-24.366 28.492l3.873 1.927c-30.377 14.408-178.436 66.837-207.251 76.096l-.613-1.051.545-1.119c3.279-1.853 116.243-42.325 126.445-45.249 1.762-1.242 59.584-23.536 62.58-24.571-3.688-2.954-8.693-9.925-6.656-13.546 2.54.302 4.321 2.277 6.179 3.853.081-10.527 7.819-2.746 42.125-40.559 196.589-218.159 273.71-329.915 274.22-330.922-1.46.457-2.871.944-4.281 1.411-4.389 15.406-288.844 315.334-311.217 324.49 17.553 4.285 11.347.664 28.745 3.231l.195 5.741c-10.743 3.163-21.739-.701-32.21-3.085-4.523-1.075-22.604 20.825-31.645 24.435-.691 3.143-.312 6.617-1.829 9.536-5.401 4.216-19.462 10.371-23.491-6.218l2.842-.74c3.182 2.258 7.026 2.608 10.831 2.365 5.982-14.29 51.576-49.25 54.474-51.905 97.696-88.38 191.002-194.354 192.002-195.301 52.449-57.011 71.636-81.928 81.799-86.82 7.648-3.892 10.597-12.543 16.134-18.606-49.329 49.003-332.762 298.654-332.762 298.654-5.362 3.133-9.478 7.746-13.876 12.037 1.964-.038 26.791 3.261 27.831 4.35.224 1.829.175 3.678.253 5.537-8.24 1.822-26.905-3.78-33.708-4.875-.806.296-27.254 20.65-30.37 24.688-3.124 3.114-3.24 8.291-6.987 10.85-9.76 3.969-15.411-1.642-14.772-9.653 2.803.068 5.089 1.674 7.172 3.425.623-1.761 1.119-3.581 2.073-5.196 14.118-11.423 402.97-347.293 404.372-365.39-16.557 10.345-34.91 33.736-43.157 34.749-.02.856.01 1.722.049 2.598-1.246.126-2.491.078-3.63.477-1.709 1.518-93.459 82.998-102.779 88.63-1 .632-154.129 122.305-154.421 127.184l-3.931-.01c-3.445 4.973-8.242 8.777-13.653 11.395-27.837 25.604-67.534 53.557-78.15 64.079 14.635.583 16.147 3.735 21.233 1.158 1.586 2.627.564 5.138-1.236 7.327-8.184-2.248-16.883-2.705-24.649-6.335-4.613 3.912-10.918 5.556-14.742 10.402-4.642 5.381-12.144 6.948-17.127 11.92-1.216 1.693-1.041 4.009-1.917 5.887-2.666 2.316-5.556 4.379-8.359 6.52-2.722 2.066-12.398 1.984-14.363-11.074l3.523-.428c2.014 2.793 5.167 3.805 8.534 3.571l-.107-4.817c1.006-.855 51.81-39.42 56.8-40.646 3.487-1.085 402.546-329.964 404.275-332.041.389-2.238.311-4.535.467-6.792-8.719 5.128-18.246 9.809-24.366 18.168-149.52 116.53-437.214 323.245-437.214 323.245 9.021 3.007 18.635 3.591 27.889 5.741-.097 2.024-.292 4.058-.545 6.082-25.935-.746-30.28-17.26-50.796 2.189-2.696 2.598-6.335 4.729-7.444 8.534-.506 2.54 1.518 6.189-1.46 7.649-9.934 4.458-21.361 2.418-22.868-2.082.039-3.571-.272-9.429 4.408-10.023 2.394-.584 3.581 2.267 5.187 3.552 7.481-8.77 214.852-152.448 221.302-161.836 6.867.968 9.308-6.374 33.407-21.963 16.398-15.409 43.719-30.03 46.631-35.265 1.265-.535 2.666-.915 3.756-1.849 7.26-7.298 17.604-10.013 25.593-16.329 8.82-5.793 71.313-60.381 93.544-75.697l68.195-48.412c41.063-26.077 34.748-29.914 35.197-34.788-1.004.768-187.85 127.615-207.523 139.63.428 1.07.895 2.141 1.372 3.231l-4.953 2.618c-.058-1.246-.097-2.481-.107-3.717l-3.854 3.532 3.318.652c-2.043 1.781-4.214 3.406-6.549 4.768.808-1.713 1.693-3.386 2.569-5.07-10.498 7.95-12.912 5.916-15.579 15.394-.127-1.391-.224-2.773-.302-4.155-15.283 10.384-12.115 6.213-13.662 12.232-.467-.72-.885-1.421-1.265-2.131-1 .615-268.426 175.5-287.405 192.051 4.681 1.09 8.709 4.029 13.497 4.788 3.386.973 7.318.272 10.344 2.394 1.508 2.832-1.031 6.646-4.311 6.16-8.729-.496-15.735-6.958-24.162-8.631-6.52 3.279-12.592 7.503-18.148 12.232-.078-1.898-.078-3.776-.068-5.654-3.493 5.002-8.485 8.641-13.701 11.667-8.647 4.765-10.047 6.458-16.29-.973-.243-2.374-1.012-5.77 1.771-6.909 3.172.574 6.033 2.501 9.391 2.345.107-1.839.097-3.688.535-5.469 52.828-29.708 576.128-374.132 581.905-388.802-1.311.556-60.023 34.801-64.118 36.54-.01 1.197.01 2.384.078 3.591l-529.172 316.375c26.921 10.733 26.381 10.427 25.826 12.709.421 10.221-17.661-4.551-30.507-9.283-.981.462-20.895 11.311-21.7 12.037-2.073 1.829-1.518 5.469-4.106 6.802-8.933 4.996-14.911 5.005-18.937-6.218l2.91-2.16c3.318 1.693 6.656 3.416 10.266 4.437l-1.294-4.934c.11-.094 561.629-335.966 582.352-349.927 3.27-2.18 5.439-5.663 8.855-7.678 1.002-.596 40.198-23.484 50.406-24.746 2.092-4.651 4.291-9.264 6.568-13.837-13.431 2.95-573.049 318.953-574.051 319.44-3.105 2.738-70.414 42.476-71.416 43.04 4.019 4.671 10.558 5.878 14.908 10.198.701 2.442-1.499 4.233-2.812 5.985-27.927-18.667-17.29-10.545-29.611-8.262-6.014 1.43-9.04 7.279-13.876 10.548-9.213 6.764-16.333 1.775-17.35-6.023 3.211-1.752 6.734-2.52 10.383-2.462l654.391-365.964c49.829-25.376 41.302-22.809 44.043-29.407l-409.928 210.881c-.001 0-282.899 153.185-282.9 153.186l-.117 1.304c4.33 2.754 9.692 3.639 13.672 6.919.068 2.024-.535 3.999-.934 5.985-10.556-.9-10.319-6.157-20.114-11.239-7.605 2.043-36.622 33.468-42.087 9.809 2.452-.156 5.187.827 7.532-.107 2.539-2.151 26.21-11.975 31.139-18.333.525-2.063.341-4.223.516-6.306-13.436 5.565-122.456 67.518-123.457 68.175-58.844 29.494-93.25 44.157-98.39 49.463 6.559-2.014 12.816-4.982 19.579-6.325 31.435-6.498 144.9-71.017 153.594-71.017l1.917 5.615a97.67 97.67 0 0 0-3.357 4.145s-203.215 92.011-360.125 142.199c-59.602 18.625-325.79 68.315-366.372 43.663 89.974 2.549 234.947-23.861 235.948-24.006l1.45-3.114c21.8 8.291 187.024-44.445 218.86-61.86 14.034-1.66 182.093-81.015 216.641-100.064 104.621-59.209 92.369-55.548 107.343-54.854.924 2.443.817 4.827-1.557 6.345.126.467.272.944.448 1.44 2.51-.477 5.031-.097 7.357 1.002 33.98-23.161 696.876-364.64 696.876-364.64 7.878-52.724 23.186-45.918 35.09-56.255 1.273-1.542 6.503-17.749.7-27.033-5.714-11.223 4.377-9.393 7.97-13.215 1.061-5.216.321-10.471-1.246-15.482 5.464-43.106-.991-47.689 5.605-55.019 6.886.043 17.055-2.051 22.556-5.702-.052-1.005-3.473-44.362 1.333-54.085.269.771 3.338 54.042 3.348 54.406 10.179-1.333 19.637-6.393 30.049-6.296-6.076-9.186.175-63.183 1.693-65.947.597 2.992.515 27.053-.457 34.506-1.573 15.341 3.11 24.384 3.814 28.648 3.231.097 6.432.71 9.615 1.382-1.612-11.106-1.288-32.814-.078-39.479l3.221.136c-1.87 8.515 1.278 44.812 1.703 47.049 10.763-9.117 4.249 3.689 7.999-64.809 4.326-33.245 3.883-114.787 3.883-114.787a34.13 34.13 0 0 1 3.785-2.9c.607 2.294-7.567 475.926-7.736 476.926l-1.401 76.593c.146 3.182-2.696 5.187-3.532 7.97-.023 3.702-6.752 270.37-7.347 279.689-4.789-10.024-.058-265.719-.74-294.538-.321.282-.603.584-.856.885.009.065-5.048 297.846-5.303 298.362-10.295-35.558 7.047-485.676 9.819-492.068 1.588 4.196-2.49 132.109-2.521 133.11.954-1.07 1.917-2.121 2.978-3.133.381.888-.22 28.938-.224 31.499l2.209-.243c2.995-25.576 1.667-145.142 2.141-172.093l-2.053.876-2.647 6.87c-1.625-17.616 4.985-158.464 4.506-169.913-8.692 5.496-5.588 9.698-7.279 16.504-1.382 4.992.944 9.819 1.537 14.713-.932 6.976-5.305 45.448.594 50.718-2.131 5.761-2.063 12.203-5.537 17.448.136 3.503.36 7.074-1.606 10.188-2.622 11.524-17.576 10.479-18.576 10.665-2.151 2.608-.691 6.315-2.005 9.274-.506 2.433-2.608 4.846-1.538 7.357 5.783 16.746-1.126 49.008-1.44 50.017-.01-2.997.701-5.926 1.294-8.845l-2.384-3.279c-1.839 2.832-3.075 5.955-4.515 8.972-2.712 6.022-3.849.96-6.49 13.536-1.81-.555-3.562-1.323-5.43-1.44-9.32 16.868-10.23 35.903-7.96 44.393-3.81 16.252-16.717 111.966-16.796 112.967-1.37 8.547.127 65.35-3.172 67.27l-1.324-.487c-.674-8.414 1.825-45.624 1.878-59.953l-1.713.827c-2.747 45.303-81.025 294.294-81.322 295.297 2.842.068 5.693.263 8.563.039 4.856-.331 9.137-3.454 14.12-2.939 3.385 17.612-145.906 156.343-303.131 245.533 7.726.759 13.653-5.05 20.62-7.288-6.101 3.737-12.738 6.5-18.888 10.14-2.968 2.044-7.065-.516-9.809 1.975-21.876 19.442-228.076 114.769-563.231 142.141-7.353.828-51.067 1.586-52.489 1.693-220.941 3.668-361.135-22.719-417.129-30.409-.331-.954-.555-1.839-.856-2.744l-.457 2.199c-7.478-1.304-96.038-13.602-158.09-33.329-39.878-11.012-36.469-11.927-39.81-10.947-17.527 4.397-20.502-4.179-24.678-6.86-5.167-.545-10.451.117-15.589-.944-4.924-.594-9.614-2.793-14.606-2.676-27.453 4.768-22.152-2.077-27.052-14.927l-3.299 4.262c-4.087.282-8.145-.38-11.882-2.034-13.091-5.801-21.846 1.563-27.986 1.936-12.244-3.983-9.267-8.77-12.524-13.195-.492-.207-14.725-4.498-15.725-4.476-11.092 8.432-20.065 12.335-31.091-12.115-8.398-.097-15.648-5.829-24.133-4.963-15.823 4.336-21.912 5.214-24.201-18.041-3.863-1.479-7.561-3.338-10.986-5.664-18.406 11.535-24.556 5.373-26.897-14.986-2.948-1.323-5.576-3.221-7.843-5.498-30.419 6.515-25.725 2.676-26.264-19.647-1.576-2.472-3.844-4.398-5.79-6.559-4.291 1.158-8.554 2.948-13.04 2.939-2.939-1.246-6.004-2.559-8.388-4.71-1.995-7.765-3.805-15.696-3.085-23.783-4.029-.993-7.318-3.61-10.033-6.627-12.112 4.433-19.65-.572-16.017-19.102-3.999-1.791-7.211-5.157-8.631-9.313.263-1.907.876-3.727 1.372-5.566l2.588-.049c1.012 1.898 2.014 3.824 3.133 5.673 1.207-4.116 4.661-6.714 7.668-9.498 3.503.944 7.396.993 10.539 3.007 3.678 2.316 2.822 7.707 6.208 10.286 14.626 12.056 24.561 16.377 24.561 16.377 3.539 2.277 10.038 13.873 37.591 27.393 82.867 46.718 172.899 94.82 359.201 84.485 2.812-.292 3.922 2.384 4.904 4.496 81.592 3.291 156.68-28.259 157.681-28.502-9.663-3.006-6.042-5.211-20.493 2.842-4.995 3.698-175.132 29.207-265.442 13.331-5.011-.613-10.539-2.754-14.995.759-2.91-2.248-5.78-4.953-9.566-5.469-196.236-31.47-282.519-142.018-342.23-189.92.862 1.01 17.062 20.709 20.445 27.208 17.816-.772 10.202 12.621 14.314 18.791 1.849 2.91 2.851 6.306 3.357 9.702-1.255 1.528-3.25 2.014-4.943 2.88-.195 4.233.886 8.32 2.044 12.358-20.134.786-13.781-15.688-14.626-27.023-11.89-6.408-7.431-8.664-6.646-14.042-3.396-6.14-9.244-10.373-13.263-16.056-7.608-10.827-21.408-34.954-21.408-34.954-3.571-3.503-7.24-6.977-9.916-11.239 2.199-1.304 4.476-.691 6.578.467-14.68-16.369-74.858-110.067-111.916-181.376-6.997-13.708-14.462-11.534-17.934-21.34-2.141-7.454-7.396-14.129-6.345-22.284-5.475-5.431-8.14-5.644-7.833-21.505-4.273-2.434-11.622-.704-17.078-30.069-2.102-3.211-5.839-5.148-7.318-8.797-2.189-5.916-1.615-12.524-4.184-18.323-5.222-5.736-5.523-1.893-14.781-17.418-2.754-4.875-1.975-10.772-4.282-15.803-1.654-4.554-5.868-7.425-8.155-11.58-1.1-3.834.088-8.164-1.956-11.804-2.073-2.598-6.111-3.289-7.327-6.637-4.395-8.628-1.443-39.311-4.953-47.156-6.128-10.523-1.981-49.22-10.84-62.259-2.666-.019-5.187 1.109-7.454 2.423l-12.154 459.294-1.781-.496c-.623-12.222-2.18-24.415-2.044-36.676-.211 1.002-1.888 76.145-3.338 84.251-1.165-12.011 2.795-439.17 2.89-440.153 1.207 3.708.477 7.678 1.314 11.463.924-3.221.778-6.559 1.197-9.828 1.012-1.547 2.189-2.987 3.279-4.476 1.625 5.372 1.907 10.938 1.888 16.523.861-6.426-1.031-48.645-1.031-48.645.682-3.636 1.666-30.138 1.713-38.009.226-12.387-8.038 7.997 2.511-164.658-1.6-11.353.049-35.168.049-35.168-5.156 16.197-10.95 198.059-9.186 227.764a138.1 138.1 0 0 0 2.764-4.369c2.063 9.78.749 19.783-.127 29.621l-3.056-2.228c.058 5.167.798 10.393-.078 15.531l-2.287 1.333c-5.353-81.311 3.973-264.176 13.896-343.106.811-20.399-3.258-15.246-.584-48.723 1.664-9.381.603-18.966 1.265-28.424l4.116-.778-3.873-.438c1.641-25.614 3.152-67.186 3.297-76.39m2285.318 240.414c-2.209 2.287-4.515 4.505-6.374 7.074-.224 1.411-.224 2.841-.243 4.272l2.189-.175c2.633-6.865 9.812-5.346 29.845-10.87 2.579 1.051 4.233 3.513 6.023 5.556 1.479-1.07 2.326-2.618 2.52-4.447-2.676-1.372-5.362-2.725-7.882-4.321 1.878-2.005 4.321-3.24 6.938-4.058-3.392-4.344-1.578-2.634-33.016 6.969m35.362-7.026c6.587 4.265 6.476 5.508 7.833 4.291.175-1.868.185-3.756.312-5.634-1.557-.331-3.065-.769-4.573-.944-1.324.594-2.443 1.489-3.572 2.287m-28.697 36.861c-3.279 2.413-7.318 3.182-11.035 4.593-.224 3.999.01 8.057-1.032 11.969-1.246-.136-2.452-.214-3.62-.467-2.744-3.639-1.82-8.349-2.189-12.563l-2.812 2.374c-1.794 4.402-3.038 31.505 3.756 36.773 10.826 9.512 4.387 13.687 7.931 29.903 3.201.623 6.413 1.314 9.673 1.8 3.624-8.443-22.945-64.747 9.176-70.676 18.986 7.872 7.681 25.06 7.22 27.704.691 6.705 1.907 13.322 3.484 19.88 3.027-2.637 5.206-5.926 6.968-9.507 5.236-.883 9.781 6.594 2.491 17.292l-8.407-.088c-.02 3.075 1.44 5.751 3.085 8.252 3.143.224 5.907-1.275 7.337-4.136l5.683-.389c1.084-4.499 1.148-20.791-.059-23.043-2.335-1.246-4.885-2.063-7.396-2.783-2.141.107-4.175.71-6.247.983-.681-5.916 1.362-12.368-2.199-17.662-1.557-7.376-2.666-14.957-3.649-22.479-6.034.879-12.836-1.641-18.159 2.27m-11.424 80.505c.146 5.06 1.343 11.21 6.812 13.059 2.9-2.559 5.372-5.586 8.495-7.921-7.819-6.916-7.483-4.921-15.307-5.138m-33.65 25.846c-1.08 6.851 2.384 13.186 3.075 19.89 3.211.457 6.422 1.022 9.702 1.041 5.926 1.995 12.67 1.849 17.905 5.644 4.404-7.092 14.73-3.104 14.012-24.688-19.671 16.114-24.619 3.68-35.314-8.622-4.125.312-7.375 3.338-9.38 6.735m-18.615 25.534c.389 3.357-.418 6.578-1.508 9.721 1.265.38 2.52 1.956 3.96 1.236 1.557-1.586 2.968-3.328 4.447-5.002l4.652 1.353v4.914c3.104.058 6.15-.555 9.186-1.207 2.52.681 3.756 3.513 5.955 4.856 2.842.662 5.576-.545 8.378-.866 2.53 1.362 4.398 3.707 7.045 4.924 3.017 1.693 6.705.088 9.76 1.829l-1.304 5.323c4.241-4.905 5.199-4.25 5.985-15.852-6.416-4.606-42.082-13.753-52.061-15.005-2.597-.876-4.534 1.333-4.495 3.776M142.391 444.643c.487 1.615.963 3.24 1.343 4.885.74-.856 1.216-1.995 2.267-2.52 1.207 1.645 1.8 3.61 2.326 5.566-.01-1.606.38-3.153 1.031-4.603-2.413-.905-4.729-2.054-6.967-3.328m2212.637 5.644c-4.661 3.396-8.077 8.135-10.685 13.234 1.498.973 3.036 1.888 4.622 2.773 2.442-1.469 5.128-2.53 8.057-2.443.72 3.999-.69 4.68 13.809 5.342 1.518 2.238 3.094 4.457 5.342 6.072 2.783-2.151 6.15-2.978 9.634-2.277.516 2.686-.915 4.593-3.357 5.576a123.65 123.65 0 0 0 3.863 3.961c1.421-2.16 2.54-4.544 4.155-6.598 2.325-.156 4.71.37 7.035-.234-.165-2.277-.895-4.437-1.138-6.675 1.353-1.732 3.766-2.189 5.673-3.202-1.138-2.725-1.002-6.607-4.311-7.668-3.085 1.829-6.189 3.941-9.965 3.085-.399-2.296.272-5.089-1.693-6.773-2.851-.798-4.982 1.606-7.581 1.907-2.968-.915-5.07-3.503-7.746-4.982-1.664.72-3.124 2.238-4.982 2.151-3.512-1.274-6.918-3.24-10.732-3.249M198.705 474.303c2.958-2.384 4.651-5.936 3.99-9.77-1.869 3.007-2.959 6.393-3.99 9.77m2136.831.36c-3.425 5.031-1.061 12.066-5.693 16.445l3.065 1.148c1.741-2.754 2.228-5.965 2.656-9.128l.477 2.754c2.588-.35 5.216-.574 7.863-.506.399 2.939-1.576 4.992-3.464 6.909 2.559.973 5.196 1.742 7.872 2.413 1.411-1.382 2.773-2.851 4.34-4.087 1.615-.409 3.299-.136 4.992-.117-.341 2.374-1.625 4.389-2.988 6.306a228.91 228.91 0 0 1 5.342 3.746c3.669-2.345 6.851-6.364 11.726-5.479-.292 2.481-1.966 4.204-3.961 5.508.487 1.508.983 3.026 1.577 4.525 3.016 1.158 3.114-2.569 4.389-4.35 1.985-3.902 7.25-3.231 10.315-5.868 2.102-1.353 1.401-4.136 1.81-6.228-4.438-2.715-9.264-4.71-13.517-7.707-12.737-2.831-3.807.07-14.421-7.347-1.615 2.082-3.542 4.038-6.393 3.396-7.544-8.794-14.53-6.472-15.987-2.333m73.781-1.47c-1.927 5.965-4.077 12.105-8.339 16.844 1.036 10.739-11.454 81.024-15.064 90.411-1.18 17.673-69.541 265.843-79.074 277.781-1.491 1.99-24.627 59.887-24.736 60.527 2.55-.341 5.051-.973 7.61-1.372l2.452 1.839c-.068 1.031-.126 2.082-.156 3.143 1.878-2.345 4.515-3.62 7.522-2.657 14.666-18.059 51.588-157.541 55.418-173.027 40.271-112.727 55.971-273.142 56.148-274.142l-1.781.653M178.211 497.268l-2.608 1.139c-.058 5.031.107 10.792 3.941 14.558 2.598.389 4.632-2.326 7.289-1.46 5.527 1.255 10.276-2.968 13.653-6.831-1.306-2.234-19.385-7.321-22.275-7.406m2142.184.555c-1.119 2.919-1.168 6.023-1.207 9.099-.905 2.345-3.104 3.824-4.681 5.663 2.306 1.002 4.827 1.683 7.406 1.411 3.425-1.489 6.286-5.002 10.412-4.194 1.927 2.248-1.061 4.671-1.645 6.967 1.995 1.022 4.058 1.966 6.101 2.958 1.732-2.618 3.182-7.045 7.181-6.179 3.143 1.518 5.702 4.739 4.583 8.447 4.778.068 7.474-4.554 11.901-5.644 2.764-.633 4.126-3.25 5.741-5.323-1.002-.817-2.014-1.576-3.026-2.277-18.964-6.471-20.135-9.164-42.766-10.928m-2158.989 6.909c-.136 2.559-.156 5.138.01 7.707l1.09.341c.234-1.46.38-3.056 2.151-3.299 2.637-.866 2.88 3.318 4.301 4.875-1.197-2.579-1.353-5.401-1.236-8.194l-1.353.136c-4.579 4.077-4.19-.566-4.963-1.566m2218.582 9.04c-.292 2.705-.642 5.41-1.372 8.048 2.043-.204 4.136-.341 6.238-.341.584 3.007-2.189 4.223-3.853 6.101-.607 2.954-9.863 41.174-11.103 44.471.36 3.838-66.31 258.442-116.821 348.516 14.766.145 11.178-1.914 19.53-3.056 3.294-11.42 39.198-91.547 42.311-107.654l56.245-198.016c2.984-26.484 10.554-55.707 15.492-68.428 3.153-7.814.409-16.766 4.301-24.357 2.365-4.467 1.781-9.741 1.012-14.538-4.75 2.014-8.039 6.111-11.98 9.254m-2206.166 2.802v4.204l-3.425-.535.662 3.036c2.18.691 4.398 1.284 6.666 1.654-.107-2.715-.136-5.44.136-8.135l-4.039-.224m2138.681 2.715c-1.829 2.589-3.737 5.128-5.235 7.921 8.447.72 16.475 3.815 23.851 7.882 4.963 1.031 9.283-2.734 12.222-6.306-1.047-.323-19.289-8.295-30.838-9.497m48.363 11.405c-2.318 8.232-3.879 31.739-13.273 61.753-.93 3.673-56.361 171.572-76.398 211.056 1.226 1.207 3.075 1.45 4.476 2.491l.068 1.567c-2.073.603-4.223.954-6.208 1.732-7.014 12.152-39.311 87.505-48.684 98.342-3.6 4.194-3.678 9.955-5.362 14.976 4.885.01 9.78-.292 14.684-.195-.37 2.297.642 5.323-1.606 6.851-5.517.107-11.366 1.226-16.64-.837-4.874 5.674-13.085 25.653-13.497 26.653 11.853-5.41 23.598-11.152 34.72-17.983 2.834-1.453 37.663-79.699 38-80.699 5.576-16.533 12.942-25.914 12.942-25.914l12.475-33.134c.282-1.001 44.099-131.971 48.781-156.572-1.226.525-2.404 1.109-3.552 1.683-.282-3.124 1.508-5.771 2.89-8.417.555.973 1.177 1.966 1.801 2.948.598-1.984 13.642-45.984 26.342-114.407-5.205-.671-9.614 3.883-11.959 8.106m-55.311 4.252c1.129 1.771 1.499 3.785 1.45 5.868-2.9 1.469-6.102 3.007-9.225 1.255-2.559 1.771-4.729 4.029-6.004 6.89 7.069-7.491 7.632-4.988 17.749-3.659-1.868-3.357-.564-7.016 1.45-9.935l-5.42-.419m10.821 2.112c.019 2.637.866 5.138 1.703 7.61l-3.61 1.868c1.732.71 3.474 1.499 5.216 2.306 2.034-2.91 3.912-5.946 4.953-9.381-2.608-1.284-5.275-2.685-8.262-2.403m-2198.079 5.138c-1.039 29.943-2.346 29.728.691 30.896-.311-10.286 1.09-20.708-.691-30.896m76.379 7.026c-5.537 1.051-11.473 1.615-16.864-.36-.097 1.829-.204 3.669-.487 5.488 3.289-.327 18.364 10.263 19.365 11.016 2.306.311 4.642-.156 6.86-.749 1.314-6.15 3.338-12.29 2.209-18.664-4.32-1.568-7.103 2.821-11.083 3.269m2104.807.554c-1.499 2.472-3.62 4.408-5.741 6.296 1.528 1.664 2.832 4.019 5.245 4.515 2.111-2.258 4-4.72 5.946-7.133 2.063-.039 4.068.418 5.887 1.479.915-1.002 1.81-2.005 2.783-2.987-4.428-1.985-9.313-2.744-14.12-2.17m-13.351 10.987c-3.922 1.518-6.607 7.639-3.377 10.675 3.532-.633 6.685-2.861 10.432-2.404-.029 1.489-.039 2.978-.01 4.466 3.153-1.557 5.975-3.756 7.94-6.724-5.05-1.868-9.935-4.174-14.985-6.013m-2124.24.331c-.078 3.309 1.012 7.318 4.904 7.678-.049 2.676-.311 5.391.146 8.048 1.499 2.082 3.493 3.746 5.342 5.517 2.676-1.469 4.729-3.737 6.928-5.809 1.061 1.927 1.489 4.077 1.353 6.276 4.068 1.654 8.515 1.148 12.777.934 1.859 2.335 4.252 4.301 7.201 5.06 1.683-.779 3.201-1.849 4.856-2.666 2.267.341 1.674 3.279 2.423 4.904 2.812.895 5.595 1.907 8.262 3.211 1.761-1.859 3.922-3.163 6.51-3.464l.156 5.566c.856.886 1.683 1.791 2.52 2.705-.652-4.749-2.919-9.089-3.289-13.867-2.777-.162-31.723-8.406-40.14-17.477-1.508.302-3.065.808-4.603.428-1.8-1.236-3.094-3.026-4.457-4.69-3.766-.087-7.259-1.595-10.889-2.354m-44.655 35.829c-.017.437-1.488 94.718-1.226 97.427-.035-7.151 2.457-88.396 3.026-92.396-1.187-5.187.156-10.432.195-15.677-.769 3.533-2.18 6.978-1.995 10.646m54.484-7.016c3.061 9.388 10.041 10.866 12.855 16.475.993 2.598 4.048 2.929 6.481 2.968 2.579.321 3.999-2.258 5.858-3.542 1.898 2.17.963 4.739.058 7.113 1.878 1.732 4.068 3.114 6.646 3.484a179.2 179.2 0 0 1 3.961-5.459l3.883.039c.01 2.987-.671 5.907-1.051 8.855 1.645.496 3.299.934 4.973 1.353 2.423-3.065 4.622-7.765 9.244-7.308-.887 7.924-4.045 5.205 2.053 11.21 1.82-2.267 3.883-4.34 5.625-6.656.701-3.036-2.394-4.476-4.068-6.364-2.189-1.888-1.722-5.041-1.927-7.61-.241-.069-21.36-5.015-22.751-5.157-2.452.029-3.659-2.861-6.014-3.007-9.069 1.907-4.407 2.156-11.804-4.457-2.442-1.061-4.544 1.168-6.812 1.761-2.549-.886-4.71-2.657-7.21-3.698m72.33 24.649c1.177 2.948 2.112 5.985 3.007 9.04l1.265.808c12.219-.601 223.806 170.769 229.983 174.652 27.338 33.56 488.516 353.231 489.518 354.228 6.279-.242 43.558-8.381 49.92-9.955l-.389-1.615-166.935-98.741c-6.905-4.226 1.728-2.104-33.076-2.919-3.153-4.214-7.736-6.938-11.376-10.655 8.33-.564 16.552 1.148 24.872.905-176.882-112.942-563.012-393.079-561.8-400.47-2.355.168-23.988-14.538-24.989-15.278m-57.179 4.924c3.172 10.792 5.097 9.453 11.92 13.049-.039 2.793.214 5.586 1.304 8.194 10.002-3.24 3.524-3.542 10.626-4.505-.01 2.014-.068 4.029-.165 6.043 2.481 1.596 5.099 3.114 8.116 3.328 2.707-8.54 2.187-5.594 6.598-6.607.253 4.457.097 10.675 4.622 12.942 1.635-4.34 4.077-8.31 7.765-11.191-2.131-2.861-5.79-4.982-5.732-8.992-23.918-1.53-38.325-11.561-45.054-12.261m64.02 8.65l211.815 185.356 162.537 134.405c16.626 7.816 76.48 60.604 100.92 76.486 2.306.72 4.7 1.129 7.065 1.683-.117.856-.214 1.732-.292 2.627 0 0 52.35 42.802 80.407 61.772 2.443 1.936 5.848 1.586 8.408 3.289 7.061 4.377 72.933 56.752 89.856 65.091-.029.662-.039 1.333-.039 2.024 8.399 2.132 26.635-5.624 39.936-4.807-1.625-1.898-2.618-4.175-3.639-6.413-7.13-6.564-45.671-27.039-55.457-36.083l1.469-3.094-2.005 2.978c-1.012-.771-78.52-50.857-101.164-75.046-5.889 1.914-36.725-1.79-37.727-1.752-3.124-3.746-7.493-6.121-10.568-9.906 9.712-.272 19.452.321 29.154-.214-1.608-1.342-103.354-72.359-108.238-76.865-.001-.001-168.375-126.444-168.376-126.445-123.518-99.673-203.238-171.375-231.257-187.244-4.378-2.441-7.696-6.81-12.805-7.842m-6.666 5.187c12.954 21.904 13 15.549 41.931 51.808 1.343.272 2.598.049 3.746-.671a56.48 56.48 0 0 0 .525-1.382c-.935-1.001-38.024-42.782-46.202-49.755m6.997 2.404c93.695 104.642 411.602 390.708 602.057 524.599-.185 1.81-.263 3.795-2.443 4.233l43.254-1.615c-.467-2.734-1.537-5.303-2.929-7.688-.37-.039-1.119-.136-1.489-.185-8.538-8.47-124.312-87.049-135.962-99.266-30.214-26.307-32.287-21.533-59.778-25.563-4.778-3.172-8.155-8.086-12.738-11.57 8.067.506 15.92 2.832 24.026 3.094-.245-.417-104.06-86.128-104.696-86.898-65.481-37.667-325.953-285.112-349.302-299.141m-50.066 15.696c2.744 5.459 9.371 8.485 10.364 14.811 1.859.399 3.669.983 5.547 1.304 2.014-.895 3.961-1.975 6.179-2.258l-.039 5.138 5.556 2.19c2.112-1.985 4.233-4.476 7.434-4.214.019 2.102-.895 3.98-1.868 5.79 2.141 1.226 4.359 2.326 6.559 3.464 4.556-6.855 3.11-5.59 1.207-10.48-1.615-.389-3.24-.701-4.865-.993-.827-2.452-1.08-4.963.039-7.376-7.359.056-27.614-6.359-35.489-12.485-.819 1.576-1.091 3.377-.624 5.109m51.224 2.092c8.782 10.944 3.111 9.983 20.406 23.948-5.274-9.206-14.441-15.239-20.406-23.948m-4.759 6.948c1.645 1.586 3.046 3.406 4.087 5.459l1.567-.963c1.732 3.863 5.08 6.559 8.349 9.079-2.764-5.187-7.6-8.7-10.996-13.409-.632-1.353-1.965-.302-3.007-.166m15.259 15.784c26.108 35.11 311.614 342.083 363.745 378.205 49.204 42.842 56.596 47.293 56.596 47.293-2.841.185-5.498-.924-8.223-1.499 2.187 2.572 42.486 33.918 44.831 35.382 11.354 13.366 14.184 8.307 26.332 22.985 5.094 3.006 41.158 6.382 45.171 5.839-2.861-3.756-8.213-2.365-11.483-5.411-1.004-.871-121.014-100.933-148.106-127.34-27.47-27.533-34.347-2.735-52.382-30.439 6.247.934 12.3 3.211 18.674 3.182 0 0-68.044-63.099-228.679-222.139-11.463-9.31-61.599-66.432-64.001-68.331-5.41-4.243-9.653-9.731-14.801-14.256-10.884-4.285-15.619-13.016-25.281-23.471h-2.393m-45.366 5.147l.165 5.605c1.888.01 3.795-.126 5.673.127 13.34 11.224 7.723 9.322 16.445 7.415 1.155 4.979-2.558 4.365 6.578 7.658.701-1.966 2.306-3.766 2.248-5.907-2.063-3.961-6.685-6.675-6.033-11.667-2.501-2.978-6.753-2.773-9.945-1.129-2.17-1.635-4.33-3.367-6.909-4.311-2.792.467-5.361 1.908-8.222 2.209m37.678 1.129c1.921 13.531 137.603 170.745 147.104 176.861C413.633 874.139 476 937.46 476 937.46c5.858 5.255 11.775 10.704 15.297 17.895 2.529 2.011 29.042 29.048 30.594 32.414 16.79 15.347 10.224 11.934 17.818 13.614-1.372-2.569-3.172-4.856-4.807-7.23 3.284.189 17.488 2.706 20.844 4.233-3.085-2.423-6.549-4.924-7.542-8.953l-.039 2.783c-38.819-36.167-30.596-37.266-41.25-37.552l2.063-2.501C449 890.504 255.43 682.703 255.193 682.517m35.946 2.267l-1.868 4.155c10.377 8.733 8.781 10.641 14.344 12.164 10.185 25.326 373.425 373.276 405.277 385.805 3.082 7.266 91.564 78.378 95.919 77.906.001 0 34.311-.954 34.312-.954-3.346-2.745-56.949-43.394-61.033-49.823.684.23 19.575 14.363 20.98 15.288-2.533-4.023-26.938-21.819-27.831-22.819l-.204 2.248-103.956-82.675c-42.301-6.763-19.622 1.073-39.848-14.46 8.991-.224 17.623 2.88 26.556 3.493-59.546-43.491-275.799-240.742-278.161-246.992-5.576-6.014-12.115-11.035-17.973-16.747-1.002-.537-61.255-64.836-66.514-66.589m-54.046 26.644l-.38 5.537c2.112-1.859 4.223-3.999 7.22-4.097-.156 2.978-.36 5.955-.107 8.943 2.102.467 4.184 1.041 6.306 1.43.913-7.174.919-2.912-2.657-9.468.38-1.489 1.041-2.861 1.615-4.262-3.289-.584-6.364-2.073-9.731-2.199-2.52.019-4.291-2.034-6.296-3.221-2.363 3.026 2.337 5.216 4.03 7.337m23.365-3.873c-5.203 25.134 359.517 413.258 360.222 417.168 5.732 1.645 10.422 6.15 16.601 6.17 3.503.671 6.267 3.357 9.78 4.087 3.513.779 7.298 1.061 10.14 3.532L521.346 998.775c-5.128-.681-10.091-2.365-15.278-2.559-3.094-3.863-5.469-8.242-8.583-12.086 4.398.691 8.68 1.907 13.02 2.851-79.272-89.211-220.672-234.821-221.166-250.136-7.269-4.544-14.217-10.033-18.839-17.38a90.12 90.12 0 0 1 2.481-1.791c-1.761-2.365-3.143-5.05-5.449-6.958.924 2.121 2.384 3.922 3.523 5.926l-1.129 3.396c-4.311-3.209-6.345-8.289-9.468-12.483m-23.695 16.854c3.464 5.391 7.97 9.896 12.825 14.013 2.053-2.501 3.766-5.255 5.05-8.223-1.907-1.275-3.922-2.413-6.247-2.588 1.333 2.102 3.922 3.931 3.289 6.724-1.421 1.927-4.077 1.752-5.673.175-4.184-2.306-5.77-7.065-9.244-10.101m25.621 10.694c9.298 21.42 278.026 366.043 341.977 382.652-6.38-6.031-110.193-120.291-116.393-126.153-6.627-3.299-14.324-3.766-20.902-7.25-2.676-3.454-4.895-7.259-7.016-11.084 4.389 1.022 8.573 3.172 13.176 2.968 0-.001-208.262-242.067-208.263-242.069l-2.579.936m8.379 31.208c4.047 4.273 120.638 177.764 137.334 185.687 2.131.808 3.085 2.968 4.398 4.671h3.27c-.185 4.486 3.6 7.736 4.817 11.872l-3.815-.487c22.055 21.551 38.994 54.917 69.635 78.743 3.639 2.54 2.89 8.349 7.094 10.237 33.475 17.429 14.002 10.919 47.682 30.954-14.728-17.974-43.318-47.155-64.322-72.622-11.914-13.65-24.194-31.231-30.176-36.988-5.021-4.972-13.487-2.656-18.392-7.804-2.968-4.71-5.936-9.439-9.692-13.575 4.642 1.275 9.098 3.085 13.536 4.953-.793-4.202-160.365-194.798-161.369-195.641m-8.972 2.218c9.421 14.837 3.913 10.939 11.444 14.898-1.673 8.788 49.329 80.37 50.893 85.098 8.298 9.164 20.599 30.72 30.001 47.877 13.868 13.377 15.021 23.182 20.883 25.476 4.651 1.874 3.514 5.085 13.078 13.614l-2.384 1.684c2.987 3.026 5.693 6.306 8.301 9.673-.603-1.985-1.275-3.97-1.645-5.994 4.593 2.511 6.559 7.639 10.383 10.986 1.518 1.43 4.077.749 5.469 2.394 7.078 8.283 33.802 39.271 44.986 46.3-6.525-6.213-37.917-51.115-47.088-56.985-16.796-13.09-1.493 1.068-15.443-15.414l1.586-1.752c-38.172-50.15-62.829-75.785-128.274-177.61l-2.19-.245M2264.85 927.155c-19.979 4.711-20.149 10.456-28.346 25.456-1.284 1.674-.078 3.639.282 5.43 33.107-19.189 23.808-14.686 35.177-36.034-3.016.808-4.738 3.464-7.113 5.148m39.956-2.93c-.392 1.002-6.747 17.297-5.975 21.622l21.992-21.496c-5.352-.174-10.694.322-16.017-.126m-26.04 1.158l-.272 5.595 4.262-3.046a58.58 58.58 0 0 1-1.654-2.248l-2.336-.301m-1744.225 76.545l1.255 4.048c3.106-.504 110.254 103.043 111.264 104.024a56.1 56.1 0 0 0-1.995 1.703c2.257 1.275 29.317 29.263 30.244 30.264 2.903 3.724 25.325 5.885 36.258 9.692 3.201 1.1 6.315 2.764 9.819 2.598 0-.001-154.634-144.223-154.635-144.223-8.777-3.318-18.411-3.892-26.965-7.843-1.742-.234-3.503-.176-5.245-.263m-128.644 6.296c.331 2.296 1.304 4.418 2.267 6.52 1.888-.214 3.815-.136 5.401 1.031-.117-3.688-.564-7.629-3.708-10.042l-3.96 2.491m28.804 36.51c.798 2.88 4.943.574 7.084.642 5.157 2.55-5.241 12.084-.399 20.211-.963-7.026 4.622-12.981 3.669-19.968-4.018-5.488-5.538-6.914-10.354-.885m16.825 5.868c-.642 3.017-.778 6.276-2.657 8.875l3.026 1.674.204 4.165c1.664 1.226 3.192 2.656 4.885 3.863 1.849.564 3.766.905 5.644 1.401 2.53-1.791 3.853-4.564 4.437-7.532-.12-.082-14.296-11.315-15.539-12.446m19.287 16.951c-.399 6.033-3.678 11.22-4.982 17.029 2.326 1.411 4.447 3.163 6.208 5.265.282-5.479 4.087-10.218 3.571-15.764-1.469-2.267-3.289-4.291-4.797-6.53m13.429 9.352l-.156 2.919c2.812 1.421 5.887 3.056 6.218 6.588l-2.812 1.596c-2.511-1.401-4.982-3.104-7.94-3.289-.07 4.889-1.738 2.866 3.961 11.677 2.287 1.839 4.943 3.192 7.162 5.157 5.283-2.232 7.093-4.412 8.622 2.433 2.371 5.612-8.049 2.066 2.248 16.513-.623-7.717 2.511-14.937 6.88-21.106-3.454-1.888-6.997-3.601-10.792-4.671-2.287-2.54 2.676-3.766 3.999-5.411-6.025-3.843-11.328-8.621-17.39-12.406m29.991 18.713l-1.752 3.435c3.688.564 3.698 4.233 3.99 7.182 3.367 3.231 9.702 4.544 9.702 10.149-4.904.594-8.067-4.515-13.059-3.513-1.09 5.265 3.182 8.69 6.724 11.697 4.982 1.343 10.422-3.639 15.151-.457-1.693 2.608-2.822 5.556-2.374 8.729 1.323 2.423 3.698 4.077 5.625 6.043 2.113-14.661 9.189-15.857 3.046-24.921-2.54 1.197-4.943 3.493-7.96 2.579.156-3.007 2.773-4.768 4.564-6.851-.002-.002-23.657-14.072-23.657-14.072m37.143 20.182c.642 4.466-2.258 8.184-2.355 12.533 2.238.418 4.184 1.557 5.323 3.591-1.44.973-2.958 1.839-4.272 2.988.667 8.325-2.892 6.365 11.337 12.339l6.997-5.06c4.87 3.925.514.77.438 15.044 1.82 1.148 3.639 2.267 5.537 3.308 2.472-6.024 3.542-12.417 3.435-18.907-2.23-1.01-15.197-2.402-10.023-6.958 1.936-2.958 5.323-3.581 8.612-3.455.457-.399.915-.788 1.382-1.168l-26.411-14.255m31.236 17.448c4.425 8.057 5.489 4.722 3.484 15.793 2.053 1.031 3.883 2.452 5.829 3.698 1.645.389 3.357.545 5.002 1.041.341 1.421-.039 2.88-.126 4.34-4.379.545-8.748-.73-11.502-4.301.136 2.725.234 5.459.243 8.213 16.643 8.847 15.621 4.77 19.793 3.493 1.508.136 2.734 1.139 4.087 1.771 1.139-3.474 2.783-6.734 4.282-10.042-.234-1.537-.963-2.929-1.246-4.418 1.557-1.469 3.318-2.705 4.953-4.068-3.385-1.967-30.314-15.297-34.799-15.52m457.309 13.127c1.187 1.012 2.112 2.384 3.552 3.094 4.214-.418 8.077-2.423 12.183-3.396-4.72-3.416-10.753-1.392-15.735.302m14.022 7.483l-32.219 12.261c8.055-.482 42.446-12.24 43.449-12.553l-.389-2.501c-3.815-.097-7.308 1.606-10.841 2.793m-420.914.827c.72 2.861 1.148 5.79 1.761 8.7 8.485 1.917 16.543 5.342 24.989 7.366 2.598-.895 4.515-3.221 6.909-4.583-4.654-1.465-33.296-11.303-33.659-11.483m-17.75 2.656c-.428 7.094.642 14.276 3.299 20.883 2.316 1.829 3.97 4.272 5.595 6.714.826-12.277-1.747-9.869 2.443-21.613-2.131-4.125-6.51-7.599-11.337-5.984m450.38 1.538c2.579.37 5.128.876 7.717 1.294l-3.815-3.396-3.902 2.102m-388.928 9.789l-.195 2.715c1.995-1.002 4.515-1.002 5.138 1.635-1.362 4.048-1.294 8.33-1.207 12.563 2.861.798 5.663 1.859 8.544 2.627 16.927-2.842 19.945-.029 24.619-.029-5.791-3.884-7.343.126-16.815-5.761-3.552-.574-7.386-.779-10.432-2.851-2.69-6.439 10.282-.586 29.135 2.092 5.744-7.065 13.153-6.103 15.745.457 3.329 6.174 3.185.676 10.276 2.141 9.809 1.557 19.579 5.265 29.631 3.367-4.778-2.618-10.509-2.559-15.609-4.33l.165-3.211c20.456 8.24 126.826 15.5 169.67 10.84 2.598-1.382 4.681-4.262 7.97-3.824 3.727-.448 6.607 3.075 10.402 2.17 30.929-3.974 28.496-2.616 31.888-6.87 5.576-.477 11.327.633 16.669-1.576 7.853-3.133 17.467-2.472 23.89-8.661.068-1.255 1.304-3.056-.185-3.834-6.48 2.398-77.334 16.839-109.055 18.08-38.799-1.598-60.303-5.916-60.303-5.916-43.383 5.788-120.601-8.179-127.389-8.271-12.164-2.053-24.279-4.515-36.229-7.58-1.944 1.585-4.085 2.908-6.323 4.027m376.327 2.472c-.009.029-9.427 13.8-11.59 19.199 3.27-.993 6.637-1.479 10.062-1.002-.157-19.035 11.214-10.636 18.45-10.636.924 2.764 1.839 5.547 2.501 8.398-5.245 1.304-9.78-1.975-14.275-4.107-.36 2.54-2.112 5.732.165 7.872 1.868 1.761 4.087 4.35 6.851 4.165 2.676-2.228 5.586-4.116 9.001-4.992 3.279-6.529 3.542-15.268-.788-21.301-5.303-.934-10.831.856-15.998-.954-2.345-1.216-3.581 1.665-4.379 3.358m-409.286.165l.146 3.484c-3.124.73-6.345.545-9.527.74l-.38 3.999c4.821 2.9 16.979 7.578 20.192 6.617.934-3.737 2.394-7.289 4.486-10.519-4.846-1.839-9.993-2.725-14.917-4.321m378.108 3.572c1.82 2.87 1.596 6.286 1.683 9.546.876 4.904 1.907 9.809 3.678 14.489 3.094-1.275 6.461-1.353 9.75-.885-3.691-7.896-2.175-23.068-2.793-25.661-2.316.204-4.632.389-6.938.136-1.77.847-3.492 1.82-5.38 2.375m65.781-3.085c-1.586 4.223-.963 8.865.72 12.962 4.554-1.596 8.855-3.785 13.185-5.907-7.477-4.241-11.574-8.91-13.905-7.055m-425.537 3.445c1.314 4.904.847 10.013.866 15.034 1.917.934 3.883 1.82 5.965 2.384.642-5.498 1.411-10.977 2.569-16.387-1.07-2.209-3.708-3.046-5.829-3.892-1.264.847-2.383 1.897-3.571 2.861m323.673 11.93c1.765 13.192 16-.333 28.2 1.956-.253-2.52-.594-5.06-1.975-7.22-13.385 1.222 5.441-1.663-26.225 5.264m105.309 2.842c-4.247.313-6.677 10.749-11.784 11.502-4.681.924-9.118 2.725-13.263 5.07-3.036 1.937-6.422-1.08-9.634.058-24.493 6.85-11.758 11.263-30.75 3.951-7.931 1.168-14.558 7.094-18.713 13.711 10.503-2.915 62.212-11.573 81.429-25.661 9.42-2.413 18.109-6.87 26.546-11.619-2.88-1.567-5.722-4.476-9.254-3.707-4.778 2.393-9.166 5.809-14.577 6.695m-372.629.651c.526 4.554-.603 9.498 2.297 13.477 1.917-.72 3.805-1.498 5.693-2.287-.477-4.885.798-9.614 2.073-14.266-2.734-1.168-4.963-3.143-6.987-5.274-1.393 2.6-3.417 5.217-3.076 8.35m16.815-2.948c-.204 3.124-2.092 6.899.321 9.604 7.512 4.106 16.377 3.717 24.668 3.61l1.197 2.423c-.847 1.002-1.654 2.053-2.588 3.007-7.931 1.294-15.735-.584-23.364-2.55.759 2.229.778 4.934 2.579 6.666 2.52.428 5.089.156 7.639.175l.272 3.756c6.461.594 12.923 1.245 19.355 2.258 1.138-4.681-1.596-9.332-.603-13.945 1.975-2.618 3.513-5.498 4.681-8.554-7.269.156-14.626-.691-21.175-4.029-4.468.109-8.72-1.283-12.982-2.421m242.837 0c-3.58 11.355.487 10.598.428 19.462-1.168 6.331 10.938 7.984 11.94 8.291-7.685-17.603-3.479-23.924-12.368-27.753m-297.438 3.24l.185 4.613c1.551.227 17.911 5.942 29.096 3.523.341-2.053.769-4.087 1.177-6.101-10.178-.371-20.493.778-30.458-2.035m111.002-.116c-.759 5.002-1.868 10.101-.759 15.161 1.775 2.871 15.919 5.397 27.879 4.214.603-5.333 2.793-10.266 4.175-15.395-10.344-1.917-20.971-1.752-31.295-3.98m166.838 1.45c-4.184 1.148-8.622.418-12.757 1.82-.633 3.562-1.586 7.104-1.284 10.762 3.552 1.413 16.814-1.067 25.232-.302-.234-4.535-.487-9.089.282-13.584-3.873-.059-7.707.457-11.473 1.304m39.245 5.809c-2.014.526-3.961 1.265-5.946 1.898.201 7.786 1.75 5.688 18.995 3.688 2.695-1.07 5.206-2.608 8.086-3.201-1.002-2.725-2.228-5.342-3.532-7.911-5.926 1.692-11.482 4.543-17.603 5.526m-68.74 12.29c1.606 2.51.165 5.936 2.452 8.184 1.294 2.267 4.136 1.781 6.354 2.083-1.457-20.91 2.22-15.682-4.145-26.069-6.685 1.702-7.298 10.567-4.661 15.802M1125.525 1195c-3.911 1.585-84.399 28.546-84.786 28.57-5.128 2.199-10.023 5.079-15.453 6.51-3.017.769-5.751-2.384-8.729-.74-1.005.431-36.255 11.616-45.872 12.427l1.829-3.046c-6.14-.438-11.726 2.88-17.827 3.017-1.002.322-30.008 8.405-39.858 10.266 6.014 1.722 12.183 3.007 18.43 3.377 13.799-8.216 42.046-5.583 61.529-9.818 5.869.283 126.969-38.022 138.355-45.356 1.393-4.019-4.378-6.442-7.618-5.207m-350.19 9.255c.837 3.844 1.567 7.756 3.143 11.395 5.709-1.302 5.818.884 5.216-15.404 0-2.725-2.695-4.194-4.33-5.946-2.647 2.666-3.212 6.451-4.029 9.955m78.15-7.6c-2.841-.623-5.732-.73-8.602-.584l.37 4.661c-1.265.71-2.501 1.45-3.737 2.199l-.136 4.778c8.253 2.703 19.131 3.23 19.131 3.231-5.907 3.542-13.01.73-19.345.263-.068 3.114-.263 6.296.389 9.371 5.611 6.836 16.087 2.345 26.361 3.766-1.849-3.99-1.255-8.339.311-12.281-.74-5.44 1.829-10.266 4.389-14.84-2.978-.195-5.926-.584-8.846-1.109-3.435.068-6.85 1.275-10.285.545m-24.873-.37l1.323 3.075a169.61 169.61 0 0 1-4.097 3.435c-.272 5.819-.856 11.911 2.092 17.234 1.187.282 2.413.389 3.639.555 6.376-12.752-.119-13.643 1.936-21.009-1.662-1.071-3.307-2.151-4.893-3.29m59.953.642l.487 3.727c2.199-1.236 4.301-.438 5.955 1.314-1.508 2.589-2.404 5.42-2.491 8.437 33.005 7.258 30.804 5.725 29.378-14.236-.001-.001-33.328.758-33.329.758m-7.882 1.071c-2.696 3.104-5.732 6.491-5.615 10.879 1.683 2.744 3.766 5.274 4.749 8.417l-4.661 2.511c-.555 5.381 5.498 9.118 10.188 6.666-.058-6.782-.584-13.546-.117-20.318-.798-2.988-3.133-5.402-4.544-8.155m247.041 14.139c-12.879 7.113-77.043 27.551-82.558 28.123a73.13 73.13 0 0 1 3.824 1.742c-6.14 2.324-56.006 19.008-87.569 15.939 1.07-1.479 2.355-2.764 3.727-3.951-3.754.751-23.154 2.765-24.162 2.861 40.727 4.924 12.589 13.076 76.593-1.07 33.773-6.202 139.846-43.494 143.347-45.804-7.858-3.481-15.58-7.821-33.202 2.16m-171.139-2.462c-3.552-.34-7.035.487-10.529.934.74 2.559 1.499 5.148 2.618 7.6 4.616.786 22.305-5.051 23.306-5.303-.38-1.46-.837-2.89-1.275-4.301-4.779-.575-9.352 1.381-14.12 1.07m-137.675 4.067l-.467 3.785c-2.394.223-20.85-2.446-25.408-2.141 3.327 7.208 3.351 11.351 25.68 9.663 3.33 1.709 2.276 2.213 1.275 5.537 1.031.37 2.063.788 3.085 1.236-1.216-2.705-.516-6.053-2.53-8.349-2.287-2.763-1.566-6.451-1.635-9.731m73.732 2.599c.156 2.043.341 4.106.623 6.169 10.003-2.861 20.133.788 30.215 1.012-1.09-2.005-2.063-4.097-2.53-6.335-9.469.458-18.849-1.197-28.308-.846m272.371 1.936c-.256.052-118.978 37.704-122.017 39.489-2.18 1.284-3.639-1.985-5.771-1.703-10.635.592-41.427 8.505-49.638 10.519 13.695.77 3.173 1.698 15.686.234 27.487 8.444 172.016-43.779 181.123-46.008-3.746-1.576-7.172-3.785-10.87-5.43-2.937.69-5.526 2.422-8.513 2.899m-199.281 6.763c-4.029 2.112-6.578 5.984-9.76 9.089 9.186-.623 18.216-2.773 27.237-4.574l.214-1.411c-2.89-1.576-5.041-4.087-7.551-6.092-3.523.4-7.26.73-10.14 2.988m224.377 1.236s-35.003 10.054-49.044 17.438c-9.808 5.425-72.546 23.977-73.547 24.328-5.066-4.942-23.531 4.07-32.492 5.255 35.399 15.617 151.646-36.251 173.64-42.894-12.953-4.412-12.962-7.354-18.557-4.127m-267.816 3.182l-.214 3.386c-7.507.392-20.797 8.989-22.673 10.48-13.003 3.509-15.623 3.836-25.991-5.44-3.425-.448-6.773-1.246-10.111-2.024-2.764.642-4.963 2.783-7.688 3.639 13.211 2.576 47.82 11.574 52.684 11.035l1.207-1.868c-2.121-.146-4.223-.185-6.325-.311 3.717-7.355 18.482-4.067 29.388-9.556-1.985-2.053-4.34-3.844-5.712-6.384-.078-1.499 0-2.968.039-4.437-1.51.585-3.048 1.091-4.604 1.48m281.595 12.008c-.01.001-91.615 35.299-101.728 36.472l.273-3.552c-8.563.38-16.815 3.007-25.33 3.756 28.649 1.899 35.413 10.163 87.404-12.524 1.014-.356 59.48-20.267 65.392-27.325-4.651-1.586-9.235-5.245-14.334-4.126-4.262 1.704-9.584 2.657-11.677 7.299m-191.856 7.006c-6.634.533-21.799 4.427-22.8 4.729 11.026 1.708 42.647-8.624 44.558-9.673-7.434.653-14.499 3.387-21.758 4.944m223.531.351c-21.781 14.469-74.891 29.355-94.975 33.27 2.676 2.413 2.581 2.157 29.086 4.184 11.155-3.304 75.702-32.188 91.598-36.326.127-.263.37-.808.496-1.07-4.398-1.255-8.602-3.445-13.117-4.048-4.369 1.294-8.865 2.248-13.088 3.99m27.762 11.959c-47.548 22.694-72.632 27.062-72.632 27.062 1.925 1.182 17.517 3.672 21.009 1.353 11.872-6.364 25.388-8.748 37.27-15.064 9.299-2.131 31.804-11.121 43.517-16.368-5.644-1.236-10.996-3.834-16.776-4.35-5.284.361-7.843 5.479-12.388 7.367m44.131 1.148c-18.773 9.973-50.175 22.33-78.529 28.93 6.199 2.014 12.66 2.715 19.151 2.54l2.725-3.338c14.089 8.464 32.541-13.876 70.491-26.682-4.448-1.129-9.352-3.97-13.838-1.45m-41.25 12.641c-1 .345-30.271 9.7-38.418 13.925 26.129-5.076 68.323-25.411 69.324-26.011-10.296 4.048-20.776 7.639-30.906 12.086m70.374-7.512c-30.399 15.516-55.775 22.877-65.704 27.403 40.626-2.587 10.65 6.05 53.355-12.777 8.33-4.077 17.496-6.442 25.495-11.171l-.438-1.538c-4.193-.73-8.465-2.238-12.708-1.917m-17.165 26.779c21.705 4.655 55.738-15.606 58.269-17.535-4.262-1.265-8.845-2.579-13.244-2.199-14.178 8.154-28.531 17.243-45.025 19.734m2.16-4.077c17.556-7.567 3.68.068 23.238-10.519-7.921 3.085-15.687 6.636-23.238 10.519m53.404 1.09c-1.518.837-4.466 1.275-3.435 3.688 2.141-.107 12.203-.535 15.151-.428 5.918-3.22 7.6-8.483 19.511-13.322-3.824.097-7.551-1.771-11.317-1.09-6.939 3.182-12.845 8.213-19.91 11.152m45.551-6.033c-4.437 3.202-9.468 5.352-14.217 7.989 4.175.545 8.446 2.043 12.572.272 2.092-3.727 4.437-7.327 7.882-9.964-2.209.078-4.486.194-6.237 1.703m16.348.827c-5.119 1.917-10.753 3.931-13.925 8.68 3.718-.077 18.389-7.953 23.17-9.741-3.115 0-6.306-.097-9.245 1.061m20.075-.341c-4.836 2.9-10.11 4.992-14.869 8.028 5.555-1.503 4.945 1.09 21.379-8.485-2.17-.097-4.622-1.061-6.51.457m28.278 2.19c-2.89.847-5.459 2.52-8.106 3.902 1.927.438 3.931 1.002 5.917.38 3.075-1.07 6.092.545 9.196.545 1.431-1.557 2.569-3.357 3.961-4.953-3.66.106-7.338-.254-10.968.126m18.236 2.773c3.231-.029 6.588.458 9.702-.71 6.598-2.219 13.633 1.236 20.221-1.246-30.549-.115-23.095-.161-29.923 1.956z"/><path d="M2576.427 58.964c1.907.38 4.184.234 5.595 1.898-.027 1.012-2.303 45.983-.448 61.802l-1.547-.185c.796 2.744-1.096 178.422-1.167 179.265a34.93 34.93 0 0 1-3.143-.915c1.148 1.022 2.365 2.024 3.24 3.357.677 4.163-2.441 17.011-.973 20.386.914 15.563-2.958 94.342-2.958 94.342-4.095 20.26.747 114.791-1.625 133.276 2.393 8.874.032 29.225.01 30.225s3.645 16.581 1.722 48.684c-.088 2.958-1.528 5.702-1.509 8.67 3.023 17.405-2.942 52.969 1.801 61.266-.837 3.007-1.353 6.16.448 8.953-.671 2.005-1.45 3.97-2.472 5.829 1.09.457 2.16.944 3.308 1.46-1.508 2.52-2.851 5.119-4.165 7.726l-4.009.107c-2.387-113.658 6.47-660.897 7.892-666.146zm-90.488 12.884a27.28 27.28 0 0 1 4.778.185l.058 5.479-4.71 2.695-.126-8.359zm-108.092 12.971c1.907-.088 3.795.302 5.663.817 0 0-4.303 38.768-5.537 123.525.915 6.607 1.547 13.487-.185 19.997 2.581 8.379.267 111.432.477 112.043-2.442 2.452-1.508 5.644-.749 8.622-.819 3.816-.473 21.926-.632 22.926-1.732 1.654-4.807 1.07-5.936-.983-.13-1.001 6.585-211.585 3.017-215.6 4.378-7.869 2.184-11.808 2.988-55.467-.216-5.322 1.108-10.547.894-15.88zm-2341.874.477c5.45 19.011-2.99 116.939-4.924 121.579l-5.323 63.972c-5.545-5.246 2.022-50.098 1.129-58.201 3.059-10.435 9.051-127.211 9.118-127.35zm15.91 7.074c1.629 16.1-12.153 250.602-12.261 251.605.877 3.054-1.917 25.224-2.355 35.479-4.015-13.033 10.03-280.018 14.616-287.084zm2410.361 1.966c1.031 7.795-.312 15.618-1.732 23.257l-2.189.477c5.58-6.425-3.165-14.577 3.921-23.734zm-22.294 4.846l3.347-1.537c.214 4.106-1.216 7.979-1.859 11.969-.067-3.533-.778-6.987-1.488-10.432zm35.431 2.715l3.785.409c-3.966 11.898-.522 15.649-3.347 24.22-3.289-7.872-.74-16.465-.438-24.629zM65.234 106.12c2.021 7.534-.387 77.663-.516 79.843 2.871 2.024 5.897 4.126 9.575 4.058 2.114-9.111 1.755-63.92 7.512-78.918 1.644 10.427-1.65 55.39-1.761 56.45 3.289 1.596 6.637 3.094 9.799 4.914 1.888 2.365 3.951 5.556 2.413 8.622-1.849 4.603-.876 9.887-3.347 14.295-2.851 3.221-7.084 4.671-10.198 7.59-1.421 4.048-2.676 8.466-1.596 12.757 1.392 8.378-1.654 16.698.068 25.048-1.08 5.099-.934 10.344-1.421 15.501 1.002 3.639-.165 7.259-.292 10.918l-2.511.545 2.812-.243-2.141 64.487c3.552-.146 7.016-.983 10.548-1.304.567-3.009 4.921-97.07 6.987-102.905-.217-1.972 5.569-87.61 9.313-95.549.72 6.744.613 13.633-.642 20.309.31 3.874-2.078 35.55-2.112 36.55-1.896 5.895-4.339 71.686-6.471 79.376 0 .001-7.113 177.824-7.113 177.824 1.528-.993 2.803-2.783 4.807-2.676.574 4.447-.127 8.884-.749 13.283-.73 3.435 3.114 5.488 3.805 8.622-9.678 40.412-4.922 92.442-8.028 111.079 2.005 2.608 3.873 5.265 4.243 8.641 3.075 3.26 3.62 7.726 5.216 11.765-3.678 2.987-6.461 6.831-9.274 10.597-.506 24.944-.236 70.321.856 95.335 1.586 4.963 7.434 8.777 6.169 14.577-.954 3.552-1.489 7.143-1.323 10.84-7.014 11.379-3.512 21.189-5.566 27.218.61 4.112 2.885 61.204 1.012 88.601 1.617 5.923 1.164 68.598 2.579 91.296l-2.384 2.102c-2.294-6.413-2.975-181.643-4.204-189.132-4.846-.924-9.77-1.236-14.704-1.08-2.228 1.567-1.08 4.525-1.022 6.792-1.258 5.839 1.158 104.785.457 108.024-1.177 5.829 2.151 11.142 3.678 16.582l1.81-.156c6.19-10.471.248-6.99 5.819-16.523 9.82 10.042 1.145 21.188.058 25.398-2.024 3.464-6.208 5.148-10.12 5.167-1.82 1.518-1.635 4.603-3.931 5.829-2.666-1.411-.584-5.089-2.413-6.997-6.966-6.789-11.184-15.382-5.527-23.315 2.16-.282 4.35-.253 6.53-.243 1.996-11.577-.522-120.293-1.294-128.41-.418-1.001-10.826-16.85-5.965-22.78.886-2.404 3.834-1.148 5.751-1.469.886-6.387-1.026-133.028 3.309-138.064-1.294-3.756 1.588-86.203 3.824-93.126 1.702-5.242-4.76-4.238-9.244-15.716l-3.201 32.764c0 .002-6.753 342.998-6.753 342.999 1.094 4.612 1.382 32.591.224 37.854 1.041 6.053.214 12.193-.097 18.275 2.554 29.811 5.001 19.657-1.031 28.152-4.15-4.764-1.677-329.676.487-342.94-.828-2.897 1.108-46.48 1.936-49.842-.718-3.612 5.549-78.677 5.946-80.281.65-2.036.3-4.098 3.26-3.221-.01 3.114-.263 6.218-.545 9.313 2.141-2.024 4.924-3.104 7.678-3.98 7.429 2.51 1.531 3.646 6.267 12.757 2.277-.778 5.556-.613 6.559-3.289 3.053-13.057-5.692-15.386-2.744-21.097 1.654-.341 3.309-.749 4.963-1.129-.202-12.645 2.775-105.32 2.841-106.321-3.834.078-7.814-.35-11.366 1.401.08 10.902-2.575 66.563-4.126 76.953l.282-76.213c-5.687-3.001-13.985-.074-11.901-15.025 5.353-11.971 4.894-9.693 9.069-11.629.905 1.236 1.868 2.442 2.637 3.776-1.554 9.659-2.092 2.557.778 14.879 0-.001 3.951-130.862 3.951-130.863-3.532.107-7.006-.564-10.422-1.392-2.66 8.746-9.561 214.671-11.833 218.539-2.002-40.697 6.647-263.889 14.06-312.669m14.052 68.935c.35 5.07-.272 10.14.097 15.21 3.678-2.939 4.252-7.814 3.941-12.212-1.382-.955-2.744-1.928-4.038-2.998M68.65 479.45l-2.822 103.363c1.012 1.401 2.258 2.608 3.416 3.892.282-3.133.905-6.471 3.961-8.009 1.226 1.07 2.472 2.102 3.756 3.124 1.304-2.754 2.89-5.391 3.99-8.223.699-8.87.705-47.417 2.219-52.771-.14-26.443 2.698-33.888-.331-41.318-4.731.137-9.479.682-14.189-.058m14.995 101.252c-1.528 2.909 3.299.145 0 0m-3.785 1.128c-.594 1.645-1.168 5.206.574 6.043.438-1.751.633-4.817-.574-6.043m-12.183 5.44c-.037 7.639 5.836 12.773 9.517 11.006 1.197-2.073 1.81-4.398 2.55-6.646-3.708-2.239-7.99-3.066-12.067-4.36m15.462.487l.088 5.615c2.073-1.917 3.805-4.175 4.982-6.744-1.713.282-3.386.71-5.07 1.129m-17.214 18.956c-2.235 19.618-.049 54.418-2.063 66.239 1.022 3.135.964 49.311.866 52.596 2.044 3.552 4.953 7.522 9.556 7.259 9.15-16.089 6.98-19.451 6.695-29.125-.343-1.598.289-50.537.156-55.817-1.151-3.679.386-28.52-.642-37.854-5.09.253-10.637.516-14.568-3.298zm2359.993-497.664c1.197 1.625 1.644 3.581 1.722 5.586l-2.258.341.536-5.927zm-16.806 10.831c.75 2.812.827 5.741 1.002 8.641l-1.333.078.331-8.719zm109.319 9.459c1.995-.282 3.347 1.537 4.311 3.056 1.603 8.719-4.345 15.838 7.298 21.71 2.705-1.907 5.956-2.005 9.04-.905 1.294-.817 2.491-2.005 4.067-2.365 2.431 10.488-19.82 23.876-28.268 2.676-3.132-7.429-2.983-20.278 3.552-24.172zm14.81 8.787c1.197-1.012 3.075 1.041 1.499 1.907-1.294 1.061-3.007-.993-1.499-1.907zm-2418.68 10.081l1.343-2.374c1.643 2.34-9.333 232.761-9.39 234.06l-3.289-.856-.827-.506c.061-1.001 1.323-55.094 3.231-59.272-1.579-4.335 8.778-170.051 8.932-171.052zm2323.521 30.886c.87 15.445-1.796 47.383 4.262 72.623l-2.832 2.627c-6.82-2.707-5.029-70.886-1.43-75.25zm-47.011 15.317c1.528 7.619 1.615 15.365 1.343 23.101 0 0 2.13 34.032 3.912 47.847-6.666 18.023-9.374-51.509-5.255-70.948zm15.618 13.039c.477 7.337.467 14.742.253 22.099-.924.642-1.897 1.197-2.812 1.771-.305-5.352-.469-19.494 2.559-23.87zm-2.481 24.98c.856-.623 1.82-1.119 2.783-1.654.115 1 2.178 24.11 1.781 26.955l-3.26.136c-1.99-1.462-3.259-18.529-1.304-25.437zm113.639 33.873c1.596.71 3.192 1.538 4.535 2.734-.866 1.051-1.898 1.927-2.871 2.832.279 8.103.086 11.458 9.974 16.212 4.797-.555 8.407-4.992 13.399-4.943 5.655 1.702-5.327 12.651-12.718 13.555-11.256 1.228-24.329-15.095-12.319-30.39zM23.099 285.56c-.185-5.284-.564-10.753 1.197-15.832 2.024 4.262 1.898 9.137 1.323 13.711l-2.52 2.121zm-.204 15.433c1.012-5.011-1.927-11.2 1.732-15.317.981 9.332-1.026 24.547-2.423 27.276-.273-4.008-.37-8.056.691-11.959zm2445.042 72.915c3.847 7.862-1.032 33.48.866 41.152-.033 1.008-3.773 58.216-1.421 74.958.146 1.499-1.031 2.666-1.615 3.951 0 .001-5.196 93.971-5.196 93.972l-1.391.214c-1.221-1.007 2.835-149.845 6.033-173.115-.149-1 .723-33.074 2.724-41.132zm-2364.586 6.315c4.529-1.154 1.994 20.822 1.246 23.14l-1.693 154.723c2.119 11.275-.721 341.02 1.421 349.402-.817 5.128-1.246 10.412.195 15.492-.204 6.062-.156 12.115.097 18.177l-.681-.039-2.501-149.527c-1.1-5.488-.389-11.054.088-16.543-1.207-5.771-.73-11.716.039-17.506-.597-3.75-1.934-257.681-1.888-257.872-.121-.999 1.198-116.356 3.677-119.447zm-40.783 7.814c-.779 2.532-1.057 59.351-4.34 61.879-1.761.584-2.491-1.333-2.073-2.744 1.666-8.38 1.659-56.057 6.413-59.135zm2390.334 6.121l1.752-.195c.77 125.64-1.975 119.088-1.975 119.088a159.21 159.21 0 0 0-4.69-1.177c-.001-.001 4.913-117.715 4.913-117.716zm69.333 8.593c-1.343 3.727-2.15 7.736-1.362 11.697 6.355 17.846 15.106 7.126 19.209 12.144 3.638 5.829-11.215 8.681-16.377 6.783-10.366-4.958-12.445-15.855-10.792-19.919 2.216-6.49-1.771-9.72 9.322-10.705zM45.451 452.729c2.189-2.452 3.99-5.216 6.179-7.668-1.002 3.221-2.53 6.257-4.428 9.04-.593-.457-1.196-.885-1.751-1.372zm2395.501 9.488l2.433-.214-.856 7.843c-2.015-2.073-1.528-5.012-1.577-7.629zM30.855 470.42c1.338 7.299 1.133 79.618-1.129 90.557.759 3.854 1.469 7.872.019 11.677 2.469 17.07-1.045 67.984-.944 69.499-4.29-20.657 2.038-170.732 2.054-171.733zm2410.603 1.752c1.791 5.897 2.783 12.884-.866 18.294-1.226-6.033-.681-12.358.866-18.294zm-14.898 7.434h1.907c.029 8.193.126 16.406-1.061 24.522 0 0-1.741 27.393-.915 56.732-1.411 3.98-1.236 8.184-1.09 12.349l-3.143.097c.001 0-2.319-38.566 4.302-93.7zm6.218 5.917l1.858-1.596c.712 3.908 2.471 6.794-.37 23.432 2.929 10.798-1.789 48.52-.331 54.601.633 3.63-.087 7.892-3.445 10.003-.055-1.08.461-79.812 2.288-86.44zm6.267 7.745l3.26-.029c.88 3.395-.209 19.456-1.625 22.333-1.411 2.511 1.635 4.904.992 7.473-.876 3.328-1.645 6.675-2.277 10.052.097-5.372-2.365-10.636-.38-15.91-1.107-4.391-.18-3.952.03-23.919zm-20.328 16.426l2.355-.049c3.178 5.31-4.599 134.131-5.099 141.82.784 2.743-4.923 67.056-3.416 72.029-3.229 29.332-6.6 138.106-6.646 151.463-.185.01-.545.01-.72.019l13.526-365.282zm31.82 4.019c.766 12.276-.689 15.509-.662 27.364-.38.136-1.139.428-1.518.574l-1.499-.603c2.983-18.185-1.803-21.998 3.679-27.335zm-2333.816 7.396c2.121-1.197 2.394 3.211.467 3.484-1.489-.273-1.207-2.599-.467-3.484zm2418.719 16.912c.954-.097 1.937-.097 2.958-.01.72 2.637 1.187 5.372.574 8.096l-4.846-.983c.293-2.393.779-4.748 1.314-7.103zm-17.34 3.766l2.948 1.528c-3.162 7.326.126 18.93 7.639 20.153 2.997.837 5.109-2.861 8.164-1.917 1.596 1.489 1.917 4.145 1.187 6.131-5.274 5.362-14.158 5.819-20.182 1.392 1.489 1.849 3.416 3.338 5.868 3.63a4.14 4.14 0 0 0-.389.847c-16.067-7.391-12.36-26.879-5.235-31.764zm-71.387 2.414l2.929-1.82c.486 12.905-1.024 37.777-2.491 50.698 1.581 6.66-2.93 76.505-2.394 78.821-.414 1.494-3.94 79.837-2.978 87.608-2.125 12.795 1.167 46.585-4.564 49.687-.826-15.633 9.501-264.961 9.498-264.994zm-16.309 27.82l2.763.127c0 .001-5.469 183.108-5.469 183.108-.701 4.849-.535 41.563-1.966 48.022.807 5.106-.964 73.502-1.324 81.011l-1.829.418 1.216-115.449c.002.001 5.047-183.752 6.609-197.237z"/><path d="M2458.225 589.956l.817-.886 1.401.594c0 .002-6.432 144.408-6.432 144.408l-2.472 122.727c-1.816 9.273-.898 42.352-2.521 51.672.886 2.569 1.119 5.264.672 7.979-7.115-5.395 4.468-296.95 8.535-326.494zm-121.715 68.341c1.537-.545 2.073-.019 1.605 1.586-1.625.506-2.16-.029-1.605-1.586zm175.819 21.038c2.695-.993 5.488-.594 8.261-.107.921 5.246-2.644 19.277 8.447 17.428 2.375-1.771 3.639-4.525 5.352-6.87 1.946.126 4.496-.584 5.78 1.372.545 2.404.37 5.099-1.81 6.617-3.133 2.404-2.433 7.327-5.907 9.371-2.316.438-4.7.272-6.987.088-18.819-10.111-13.974-24.183-13.136-27.899zm-117.093 1.596c4.21-1.551 2.257 1.518 2.919 3.62.026 1-2.519 65.389-3.785 70.18.078 7.259.72 14.684-1.44 21.739-1.661-9.407 2.218-94.532 2.306-95.539zm-364.339 18.888l4.71-.253.574 1.489-4.136 1.888-1.148-3.124zm477.063 108.754l5.858-1.07c.049 3.746 2.725 7.318 5.994 8.904 3.912-.146 7.074-3.571 11.181-3.182-1.148 2.55-1.499 5.294-1.313 8.077l-3.902 1.576c0 1.79-.078 3.591-.156 5.401-6.52-1.349-14.339-8.437-17.302-14.285-.292-1.802-.282-3.631-.36-5.421zm-70.618.788c2.776 2.068-.217 116.888-.243 117.891l-1.868.389c-1.236-29.998 1.11-111.328 2.111-118.28zm-825.666 37.902c3.552.156 5.235 4.097 6.588 6.88-5.955 2.078-133.467 67.06-163.919 69.635l-.039-1.975c21.33-7.816 75.165-30.622 157.37-74.54zm26.079 19.54c-.535 1.567.068 4.291-2.277 4.262-21.956 5.113-31.836 13.344-44.5 17.516-87.007 44.774-257.583 104.168-265.656 101.854l184.15-71.095 4.048 2.491c.676-8.829 118.694-54.897 124.235-55.028zm16.971 14.499l1.177 3.873c-9.96 8.786-185.847 81.392-360.855 129.111l-.418-2.228c1.09.448 2.209.866 3.367 1.275 4.302-2.564 118.566-39.548 166.352-56.596 4.066-2.059 188.124-74.987 190.377-75.435zm24.376 11.813l.127 4.223c-1.583 1.535-214.394 85.331-264.051 92.688.068-1.022.156-2.034.263-3.036 33.382-4.656 254.762-94.403 263.661-93.875zm24.172 7.026l.136 2.258c-6.393 4.982-14.081 7.814-21.262 11.405l-.642-1.868c-2.606 4.564-36.65 16.639-41.444 18.372-10.05 7.758-204.115 72.531-227.667 71.961 4.233-2.968 9.322-4.408 14.489-4.204.184-.203 136.63-45.879 136.711-45.891 1.001-.463 134.182-52.306 139.679-52.033zm24.143 18.635c4.418.097 7.824-3.669 12.329-3.211l1.314 3.931c-11.089 1.801-39.217 15.329-45.259 15.463-5.488 3.953-199.848 74.508-224.504 69.275-.769.866-1.401 1.829-2.014 2.812-2.501.876-5.119 1.353-7.736 1.635l3.25-2.53c-.002 0-148.757 33.552-148.758 33.553l.029 1.421c-4.875-.788-9.692.204-14.421 1.284 6.719-4.017 164.545-37.838 173.951-39.78 51.328-10.45 249.269-83.201 251.819-83.853zm476.605 1.236c-2.51 8.495-8.894 14.986-13.419 22.41-.652 2.063-2.812 1.654-4.457 1.44-.457-1.499-.156-2.773.905-3.853 13.122-17.235 9.606-18.117 16.971-19.997zm-423.494 7.804c-8.432 6.092-214.678 73.49-226.139 71.338 2.829-1.77 223.505-73.432 226.139-71.338zm-345.732 4.642c4.924-2.053 10.149-3.27 15.355-4.428-15.144 12.291-266.95 95.836-273.033 100.677 6.734 1.353 11.891-4.885 18.499-3.795-8.64 5.014-88.582 25.335-101.163 27.296 9.317-6.124 65.767-17.664 69.061-19.491-1.586-.117-3.163-.204-4.719-.243 28.147-13.258 100.85-35.497 276-100.016m-264.616 98.244c2.18-.088 4.311-.632 6.179-1.82-2.364-.71-4.768-.35-6.179 1.82z"/><path d="M1813.38 936.924l1.333 3.941c-19.942-1.069-141.605 48.688-183.069 52.927 140.659-46.016 117.228-39.722 126.445-40.199 7.153-5.29 46.049-17.134 55.291-16.669zm167.286 3.114c-21.019 16.07-113.768 50.168-117.911 49.482 4.3-2.706 117.658-49.391 117.911-49.482zm-199.515 30.984c-7.234 7.335-165.929 56.782-179.362 56.566-71.576 19.811-68.07 16.671-73.644 20.542l.35-1.742s65.382-16.606 153.244-43.468c25.104-5.27 83.927-32.461 99.412-31.898zm45.668 6.753c-1 .272-97.591 35.094-117.22 39.42-6.866 3.606-76.4 21.855-77.4 22.109l.253-1.664c8.508-1.836 64.297-19.027 67.446-19.102 1.392-.687 112.324-38.61 126.921-40.763zm-570.208 6.919c-1.533 1.663-36.618 12.133-37.62 12.388 10.83-7.301 35.503-12.052 37.62-12.388zm126.454 11.813c9.001 1.761 16.26-8.31 25.213-5.148-4.038 1.43-8.505.856-12.417 2.695-3.99 1.849-8.213 3.231-12.621 3.493l-.175-1.04zm-70.112-3.357c2.783-.837 5.586-1.615 8.476-2.005l-.681 2.024c-2.287.632-4.486 1.508-6.646 2.442l-1.149-2.461zm316.219.146c-1.37.703-82.862 26.321-89.554 26.663l.594-1.606c-.001.001 53.252-18.026 88.96-25.057zm-417.09 5.732c-43.891 16.317-153.094 46.429-197.549 41.97 1.34-.881 68.577-9.788 69.577-9.867 18.328-2.229 127.972-32.103 127.972-32.103zm75.6 2.997l3.513 2.384c1.761-.798 3.62-1.382 5.586-1.586-4.223 4.193-88.727 25.07-125.462 35.567 8.239-8.517 110.29-28.459 116.363-36.365zm122.64 1.401c-1.572.568-41.267 11.736-42.836 11.872l.574-2.121c8.993-.462 33.799-10.962 42.262-9.751zm384.501 5.576c-199.573 61.905-439.65 108.232-445.816 108.15-9.319 2.471-60.435 11.553-69.547 7.357 4.396-1.03 84.432-10.13 159.997-29.524l119.205-24.658c1-.226 131.265-32.08 142.793-38.924l1.333 2.121c1.001-.359 82.077-24.363 92.035-24.522zm-438.167 2.316l.399.895c-66.334 21.013-144.446 28.78-175.693 34.74-5.274-.457-9.964 2.764-15.229 2.082 5.754-4.759 172.044-29.149 190.523-37.717zm419.552 27.276l-.049 3.056c-.043.026-29.758 10.53-31.772 11.064-.477-.915-.866-1.849-1.177-2.793 3.766-1.469 7.765-2.326 11.385-4.175-2.802.638-116.312 28.659-140.964 31.499 2.635-2.493 159.101-39.688 162.577-38.651zm-33.553 11.94l.078 2.569c-7.279 2.627-14.859 4.369-22.401 6.004 6.42-2.925 9.194-6.143 22.323-8.573zm-28.881 20.776c-2.653.925-99.654 23.962-106.409 23.452 15.739-5.92 77.063-18.517 106.409-23.452zm-68.156 4.865c-10.466 6.394-35.528 12.675-41.804 12.864-38.167 13.014-217.119 40.48-218.121 40.666-1-.107-112.78 12.377-128.975 10.578l-1.722-1.557c100.903.319 338.727-48.944 340.877-48.996 3.913-1.782 48.563-13.529 49.745-13.555zm-1045.879 12.203l3.075 3.746-2.803-.292-.272-3.454zm-11.765 36.277c.555.555.555.555 0 0zm952.062 6.539c9.41-2.783 19.277-4.535 29.096-3.153-6.666 2.306-13.808 2.783-20.805 2.812-4.467 1.44-9.04 2.219-13.74 1.849-4.93 1.066-53.616 9.668-60.167 8.515 3.967-3.9 8.063-1.362 38.574-6.024 7.363-3.529 23.716-2.831 27.042-3.999zm-312.735 7.084c22.363.279 23.919-.604 27.617 1.927-9.05 1.45-18.236 1.275-27.373 1.45l-.244-3.377zm247.528 1.11c-2.022 4.616-78.582 14.007-81.244 12.67-18.119 9.816-224.771 20.408-244.628 4.778 2.54-.097 5.031.438 7.376 1.45 44.704 18.576 313.048-17.529 318.496-18.898zm-357.79 24.347c4.496-.234 8.914.535 13.176 1.917l50.854 5.041c.029.302.107.915.136 1.226-4.156 2.46-51.979-1.505-64.166-8.184zm375.228 7.288c-5.473 4.373-28.208 2.052-31.246 1.197 1-.226 22.718-2.494 31.246-1.197zm-309.845 1.168l.38-.574c5.371-.328 64.98 4.168 74.627 3.688l2.52 3.007c-4.359 2.141-8.816-.545-13.331-.107-1-.226-53.318-1.738-63.981-4.603-.059-.35-.167-1.061-.215-1.411zm267.846 1.713c-6.954 2.764-184.131 8.047-189.862 4.272l.146-2.608 189.716-1.664zm-290.733 15.209l44.208 6.189-3.503 3.639c-.001 0-40.831-8.301-40.831-8.301.038-.378.096-1.147.126-1.527zm43.02 9.673c2.19-7.131-15.497-.635 194.63 4.846l-.302 2.043c-6.99.087-66.386.068-89.944-1.936-4.429.926-62.399-.018-104.384-4.953z"/></svg>