<svg xmlns="http://www.w3.org/2000/svg" xmlns:xlink="http://www.w3.org/1999/xlink" width="553" height="528" fill="none" xmlns:v="https://vecta.io/nano"><style><![CDATA[.B{stroke:#000}.C{fill:#c4c4c4}.D{stroke-width:8}.E{stroke-width:7}]]></style><path d="M123.642 4.053c-2.5 13.5-3.5 43.5 0 52.5 2.954 7.596 39.594 218.367 50 282.999 83.859-23.385 127.238-19.095 184.238 14.363C438.131 205.885 472.221 53.971 460.642 34.554c-11.804-19.795 32.76 13.544 35.5 37s11.5 64.501 11.5 64.501 25 147.999-71.5 288.999L408 454l-16 11.553H150l-53.358-23 3.5-25.5-8.5-6.5c-22.126-43.087-38.821-211-36.41-216.5s3.41-113.999 20.41-142.999 40.676-48.204 48-47z" fill="#fca808"/><path d="M173.642 356.053s1.923-4.555 0-16.5m0 0c-10.406-64.632-47.046-275.403-50-282.999-3.5-9-2.5-39 0-52.5-7.324-1.203-31 18-48 47s-18 137.499-20.41 142.999 14.285 173.413 36.41 216.5l8.5 6.5-3.5 25.5 53.358 23h242L408 454l28.142-28.947c96.5-141 71.5-288.999 71.5-288.999s-8.76-41.044-11.5-64.5-47.304-56.795-35.5-37-23.855 177.295-107.5 328m-179.5-23c85.209-23.762 128.624-18.95 187 16.001" class="B E"/><mask id="A" mask-type="alpha" maskUnits="userSpaceOnUse" x="0" y="6" width="553" height="522"><path d="M549 267c0 141.723-121.782 257-272.5 257S4 408.723 4 267 125.782 10 276.5 10 549 125.277 549 267z" fill="#49c500" class="B D"/></mask><g mask="url(#A)"><use xlink:href="#H" fill="#49c500" class="B D"/><path transform="rotate(3.417 287.537 -28)" fill="#fff" d="M287.537-28h350v613h-350z"/><use xlink:href="#H" class="B D"/><path d="M123.642 2.054c-2.5 13.5-3.5 43.5 0 52.5 2.954 7.596 39.594 218.367 50 282.999 83.859-23.385 127.238-19.095 184.238 14.363C438.131 203.885 472.221 51.971 460.642 32.554c-11.804-19.795 32.76 13.544 35.5 37s11.5 64.501 11.5 64.501 25 147.999-71.5 288.999v40.5 64l-336-5L98 462.5c-8.5-4 .228-45.797 0-47.5s-6.358-6.447-6.358-6.447c-22.126-43.087-38.821-211-36.41-216.5s3.41-113.999 20.41-142.999 40.676-48.204 48-47z" fill="#fca808"/><path d="M175.5 351s.065-1.502-1.858-13.447m0 0c-10.406-64.632-47.046-275.403-50-282.999-3.5-9-2.5-39 0-52.5-7.324-1.203-31 18-48 47s-18 137.499-20.41 142.999 14.285 173.413 36.41 216.5c0 0 6.13 4.744 6.358 6.447s-8.5 43.5 0 47.5l2.142 60.053 336 5v-64-40.5c96.5-141 71.5-288.999 71.5-288.999s-8.76-41.044-11.5-64.5-47.304-56.795-35.5-37-23.855 177.295-107.5 328m-179.5-23c85.209-23.762 128.624-18.95 187 16.001" class="B E"/><path d="M236.142 207.553l-31.5 10.5v8.5l25 64.5 17-6-10.5-77.5zm23.5 69l-4.5-100h42l-17.5 103.5-20-3.5zm37.5 8.5l14-83.5 31 9-27 80.5-18-6z" fill="#fce60e"/><path d="M236.142 207.553l-31.5 10.5v8.5l25 64.5 17-6-10.5-77.5zm23.5 69l-4.5-100h42l-17.5 103.5-20-3.5zm37.5 8.5l14-83.5 31 9-27 80.5-18-6z" class="B E"/><mask id="B" mask-type="alpha" maskUnits="userSpaceOnUse" x="-61" y="324" width="694" height="293"><path d="M-61 324h694v293H-61z" class="C"/></mask><g mask="url(#B)" class="B D"><use xlink:href="#H"/></g></g><path d="M255.651 490.961a3 3 0 0 1-4.779-.169l-21.54-30.621c-1.426-2.028.083-4.812 2.56-4.724l45.194 1.601c2.477.088 3.785 2.972 2.219 4.894l-23.654 29.019z" fill="#000"/><mask id="C" mask-type="alpha" maskUnits="userSpaceOnUse" x="145" y="428" width="62" height="24"><path transform="rotate(355.084 145 433.142)" d="M145 433.142h60v18h-60z" class="C"/></mask><g mask="url(#C)"><ellipse cx="177.203" cy="457.472" rx="32" ry="27" transform="rotate(355.084 177.203 457.472)" fill="#000"/></g><mask id="D" mask-type="alpha" maskUnits="userSpaceOnUse" x="146" y="445" width="62" height="25"><path transform="rotate(175.084 207.864 463.868)" d="M207.864 463.868h60v18h-60z" class="C"/></mask><g mask="url(#D)"><ellipse cx="175.661" cy="439.538" rx="32" ry="27" transform="rotate(175.084 175.661 439.538)" fill="#000"/></g><mask id="E" mask-type="alpha" maskUnits="userSpaceOnUse" x="310" y="435" width="62" height="23"><path transform="rotate(3.852 311.709 435.53)" d="M311.709 435.53h60v18h-60z" class="C"/></mask><g mask="url(#E)"><ellipse cx="339.827" cy="464.484" rx="32" ry="27" transform="rotate(3.852 339.827 464.484)" fill="#000"/></g><mask id="F" mask-type="alpha" maskUnits="userSpaceOnUse" x="309" y="453" width="62" height="23"><path transform="rotate(183.852 369.155 475.479)" d="M369.155 475.479h60v18h-60z" class="C"/></mask><g mask="url(#F)"><ellipse cx="341.037" cy="446.525" rx="32" ry="27" transform="rotate(183.852 341.037 446.525)" fill="#000"/></g><defs ><path id="H" d="M549 267c0 141.723-121.782 257-272.5 257S4 408.723 4 267 125.782 10 276.5 10 549 125.277 549 267z"/></defs></svg>